<?xml version="1.0" encoding="UTF-8"?>
<svg width="53px" height="18px" viewBox="0 0 53 18" version="1.1" xmlns="http://www.w3.org/2000/svg" xmlns:xlink="http://www.w3.org/1999/xlink">
    <!-- Generator: Sketch 51.3 (57544) - http://www.bohemiancoding.com/sketch -->
    <title>Logo</title>
    <desc>Created with Sketch.</desc>
    <defs></defs>
    <g id="Pages" stroke="none" stroke-width="1" fill="none" fill-rule="evenodd">
        <g id="Cart" transform="translate(-24.000000, -22.000000)">
            <g id="NavBar" transform="translate(24.000000, 20.000000)">
                <g id="Logo" transform="translate(0.000000, 2.000000)">
                    <rect id="Rectangle" fill="#D8D8D8" fill-rule="nonzero" x="0" y="0" width="53" height="18"></rect>
                    <path d="M18.438,11 L18.438,6.752 L19.47,6.752 L19.47,10.106 L21.114,10.106 L21.114,11 L18.438,11 Z M25.842,8.858 C25.842,9.19400168 25.7840006,9.50099861 25.668,9.779 C25.5519994,10.0570014 25.391001,10.294999 25.185,10.493 C24.978999,10.691001 24.7340014,10.8439995 24.45,10.952 C24.1659986,11.0600005 23.8580017,11.114 23.526,11.114 C23.1939983,11.114 22.8870014,11.0600005 22.605,10.952 C22.3229986,10.8439995 22.079001,10.691001 21.873,10.493 C21.666999,10.294999 21.5060006,10.0570014 21.39,9.779 C21.2739994,9.50099861 21.216,9.19400168 21.216,8.858 C21.216,8.5179983 21.2739994,8.21100137 21.39,7.937 C21.5060006,7.66299863 21.666999,7.43000096 21.873,7.238 C22.079001,7.04599904 22.3229986,6.89800052 22.605,6.794 C22.8870014,6.68999948 23.1939983,6.638 23.526,6.638 C23.8580017,6.638 24.1659986,6.68999948 24.45,6.794 C24.7340014,6.89800052 24.978999,7.04599904 25.185,7.238 C25.391001,7.43000096 25.5519994,7.66299863 25.668,7.937 C25.7840006,8.21100137 25.842,8.5179983 25.842,8.858 Z M24.744,8.858 C24.744,8.67399908 24.7140003,8.5020008 24.654,8.342 C24.5939997,8.1819992 24.5110005,8.04500057 24.405,7.931 C24.2989995,7.81699943 24.1710008,7.72700033 24.021,7.661 C23.8709993,7.59499967 23.7060009,7.562 23.526,7.562 C23.3459991,7.562 23.1820007,7.59499967 23.034,7.661 C22.8859993,7.72700033 22.7580005,7.81699943 22.65,7.931 C22.5419995,8.04500057 22.4590003,8.1819992 22.401,8.342 C22.3429997,8.5020008 22.314,8.67399908 22.314,8.858 C22.314,9.05000096 22.3439997,9.22699919 22.404,9.389 C22.4640003,9.55100081 22.5469995,9.68999942 22.653,9.806 C22.7590005,9.92200058 22.8859993,10.0129997 23.034,10.079 C23.1820007,10.1450003 23.3459991,10.178 23.526,10.178 C23.7060009,10.178 23.8699993,10.1450003 24.018,10.079 C24.1660007,10.0129997 24.2939995,9.92200058 24.402,9.806 C24.5100005,9.68999942 24.5939997,9.55100081 24.654,9.389 C24.7140003,9.22699919 24.744,9.05000096 24.744,8.858 Z M30.294,10.742 C30.085999,10.8500005 29.8430014,10.9379997 29.565,11.006 C29.2869986,11.0740003 28.9840016,11.108 28.656,11.108 C28.3159983,11.108 28.0030014,11.0540005 27.717,10.946 C27.4309986,10.8379995 27.185001,10.686001 26.979,10.49 C26.772999,10.293999 26.6120006,10.0590014 26.496,9.785 C26.3799994,9.51099863 26.322,9.20600168 26.322,8.87 C26.322,8.5299983 26.3809994,8.22200138 26.499,7.946 C26.6170006,7.66999862 26.779999,7.43500097 26.988,7.241 C27.196001,7.04699903 27.4399986,6.89800052 27.72,6.794 C28.0000014,6.68999948 28.3019984,6.638 28.626,6.638 C28.9620017,6.638 29.2739986,6.68899949 29.562,6.791 C29.8500014,6.89300051 30.0839991,7.02999914 30.264,7.202 L29.616,7.94 C29.5159995,7.82399942 29.3840008,7.72900037 29.22,7.655 C29.0559992,7.58099963 28.870001,7.544 28.662,7.544 C28.4819991,7.544 28.3160008,7.57699967 28.164,7.643 C28.0119992,7.70900033 27.8800006,7.80099941 27.768,7.919 C27.6559994,8.03700059 27.5690003,8.17699919 27.507,8.339 C27.4449997,8.50100081 27.414,8.67799904 27.414,8.87 C27.414,9.06600098 27.4419997,9.24599918 27.498,9.41 C27.5540003,9.57400082 27.6369995,9.71499941 27.747,9.833 C27.8570006,9.95100059 27.9929992,10.0429997 28.155,10.109 C28.3170008,10.1750003 28.501999,10.208 28.71,10.208 C28.8300006,10.208 28.9439995,10.1990001 29.052,10.181 C29.1600005,10.1629999 29.2599995,10.1340002 29.352,10.094 L29.352,9.32 L28.542,9.32 L28.542,8.492 L30.294,8.492 L30.294,10.742 Z M35.562,8.858 C35.562,9.19400168 35.5040006,9.50099861 35.388,9.779 C35.2719994,10.0570014 35.111001,10.294999 34.905,10.493 C34.698999,10.691001 34.4540014,10.8439995 34.17,10.952 C33.8859986,11.0600005 33.5780017,11.114 33.246,11.114 C32.9139983,11.114 32.6070014,11.0600005 32.325,10.952 C32.0429986,10.8439995 31.799001,10.691001 31.593,10.493 C31.386999,10.294999 31.2260006,10.0570014 31.11,9.779 C30.9939994,9.50099861 30.936,9.19400168 30.936,8.858 C30.936,8.5179983 30.9939994,8.21100137 31.11,7.937 C31.2260006,7.66299863 31.386999,7.43000096 31.593,7.238 C31.799001,7.04599904 32.0429986,6.89800052 32.325,6.794 C32.6070014,6.68999948 32.9139983,6.638 33.246,6.638 C33.5780017,6.638 33.8859986,6.68999948 34.17,6.794 C34.4540014,6.89800052 34.698999,7.04599904 34.905,7.238 C35.111001,7.43000096 35.2719994,7.66299863 35.388,7.937 C35.5040006,8.21100137 35.562,8.5179983 35.562,8.858 Z M34.464,8.858 C34.464,8.67399908 34.4340003,8.5020008 34.374,8.342 C34.3139997,8.1819992 34.2310005,8.04500057 34.125,7.931 C34.0189995,7.81699943 33.8910008,7.72700033 33.741,7.661 C33.5909993,7.59499967 33.4260009,7.562 33.246,7.562 C33.0659991,7.562 32.9020007,7.59499967 32.754,7.661 C32.6059993,7.72700033 32.4780005,7.81699943 32.37,7.931 C32.2619995,8.04500057 32.1790003,8.1819992 32.121,8.342 C32.0629997,8.5020008 32.034,8.67399908 32.034,8.858 C32.034,9.05000096 32.0639997,9.22699919 32.124,9.389 C32.1840003,9.55100081 32.2669995,9.68999942 32.373,9.806 C32.4790005,9.92200058 32.6059993,10.0129997 32.754,10.079 C32.9020007,10.1450003 33.0659991,10.178 33.246,10.178 C33.4260009,10.178 33.5899993,10.1450003 33.738,10.079 C33.8860007,10.0129997 34.0139995,9.92200058 34.122,9.806 C34.2300005,9.68999942 34.3139997,9.55100081 34.374,9.389 C34.4340003,9.22699919 34.464,9.05000096 34.464,8.858 Z" id="LOGO" fill="#FFFFFF"></path>
                </g>
            </g>
        </g>
    </g>
</svg>